<svg xmlns="http://www.w3.org/2000/svg" viewBox="0 0 400 400" width="400" height="400">
<rect width="400" height="400" fill="#eee"/>
<defs>
<linearGradient id="g" x1="18%" y1="12%" x2="82%" y2="88%">
  <stop offset="0%" stop-color="#f7f9fc"/>
  <stop offset="45%" stop-color="#d4e2f4"/>
  <stop offset="100%" stop-color="#a8bddc"/>
</linearGradient>
</defs>
<path fill="url(#g)" d="M 386.4 200.0 C 390.5 205.4, 394.9 211.3, 397.8 217.3 C 400.7 223.3, 403.0 229.8, 403.9 235.9 C 404.7 242.1, 404.4 248.5, 402.8 254.3 C 401.3 260.2, 398.3 265.8, 394.6 270.8 C 391.0 275.8, 386.0 280.4, 380.9 284.4 C 375.8 288.3, 369.8 291.7, 364.0 294.7 C 358.2 297.7, 352.0 300.1, 346.3 302.4 C 340.5 304.8, 334.8 306.7, 329.5 308.7 C 324.1 310.6, 319.1 312.4, 314.2 314.2 C 309.4 316.1, 304.9 317.9, 300.5 319.8 C 296.1 321.6, 291.9 323.5, 287.8 325.3 C 283.6 327.2, 279.6 329.0, 275.5 330.7 C 271.4 332.5, 267.4 334.2, 263.3 335.8 C 259.3 337.4, 255.2 339.0, 251.1 340.5 C 247.1 342.1, 243.0 343.5, 238.9 345.1 C 234.8 346.6, 230.6 348.2, 226.4 349.8 C 222.2 351.4, 217.9 353.1, 213.5 354.8 C 209.1 356.5, 204.7 358.3, 200.0 360.0 C 195.3 361.6, 190.5 363.4, 185.6 364.8 C 180.6 366.2, 175.5 367.5, 170.3 368.3 C 165.1 369.1, 159.8 369.7, 154.6 369.6 C 149.3 369.5, 144.0 368.9, 138.9 367.7 C 133.9 366.5, 128.9 364.7, 124.3 362.4 C 119.7 360.1, 115.3 357.1, 111.2 353.9 C 107.1 350.7, 103.4 346.9, 99.7 343.2 C 96.1 339.5, 92.9 335.5, 89.5 331.7 C 86.0 328.0, 82.8 324.3, 79.2 320.8 C 75.5 317.4, 71.8 314.2, 67.5 311.2 C 63.3 308.1, 58.6 305.4, 53.7 302.5 C 48.7 299.5, 43.2 296.9, 37.8 293.7 C 32.4 290.5, 26.5 287.2, 21.3 283.3 C 16.2 279.4, 11.0 275.1, 7.0 270.2 C 3.0 265.4, -0.4 259.9, -2.4 254.2 C -4.3 248.5, -5.2 242.2, -4.6 236.1 C -4.1 229.9, -2.0 223.4, 0.9 217.4 C 3.8 211.4, 8.3 205.4, 12.8 200.0 C 17.3 194.6, 23.0 189.6, 28.0 185.0 C 33.1 180.3, 38.4 176.3, 43.0 172.3 C 47.6 168.4, 51.9 164.9, 55.4 161.2 C 58.9 157.6, 61.7 154.2, 64.0 150.5 C 66.4 146.8, 67.9 143.1, 69.4 139.1 C 70.8 135.1, 71.7 130.9, 72.7 126.5 C 73.8 122.2, 74.6 117.6, 75.8 113.0 C 77.0 108.5, 78.2 103.7, 79.9 99.2 C 81.5 94.6, 83.4 90.1, 85.7 85.7 C 87.9 81.3, 90.5 77.0, 93.3 72.8 C 96.0 68.6, 99.1 64.5, 102.3 60.4 C 105.5 56.4, 108.9 52.4, 112.5 48.4 C 116.0 44.4, 119.8 40.3, 123.7 36.5 C 127.7 32.6, 131.9 28.7, 136.4 25.2 C 140.9 21.7, 145.6 18.3, 150.6 15.6 C 155.6 12.9, 160.9 10.5, 166.3 9.0 C 171.7 7.5, 177.5 6.6, 183.1 6.5 C 188.7 6.4, 194.5 7.2, 200.0 8.6 C 205.5 9.9, 211.0 12.1, 216.2 14.5 C 221.4 16.9, 226.4 20.0, 231.2 22.8 C 236.1 25.7, 240.6 28.8, 245.1 31.6 C 249.7 34.3, 254.0 36.9, 258.5 39.2 C 263.1 41.4, 267.6 43.2, 272.3 44.9 C 277.1 46.6, 282.0 47.8, 287.0 49.3 C 292.1 50.7, 297.4 51.9, 302.4 53.7 C 307.5 55.5, 312.8 57.4, 317.5 60.0 C 322.1 62.6, 326.7 65.7, 330.5 69.5 C 334.3 73.2, 337.6 77.7, 340.1 82.4 C 342.6 87.2, 344.3 92.7, 345.6 98.1 C 346.8 103.5, 347.1 109.3, 347.5 114.9 C 347.8 120.4, 347.5 126.0, 347.7 131.1 C 347.9 136.3, 347.8 141.2, 348.7 145.9 C 349.5 150.6, 350.7 154.8, 352.7 159.1 C 354.8 163.4, 357.6 167.3, 361.0 171.6 C 364.3 175.9, 368.7 180.1, 372.9 184.9 C 377.1 189.6, 382.2 194.6, 386.4 200.0 Z"/>
</svg>